<svg width="18" height="15" fill="none" xmlns="http://www.w3.org/2000/svg"><path d="M15.967.333h-13.6c-.935 0-1.692.788-1.692 1.75l-.008 10.5c0 .963.765 1.75 1.7 1.75h13.6c.935 0 1.7-.787 1.7-1.75v-10.5c0-.962-.765-1.75-1.7-1.75zm-.34 3.719L9.617 7.92a.839.839 0 0 1-.9 0l-6.01-3.868a.729.729 0 0 1-.347-.464.765.765 0 0 1 .088-.579.735.735 0 0 1 .466-.334.702.702 0 0 1 .558.117l5.695 3.666 5.695-3.666a.712.712 0 0 1 .557-.117.712.712 0 0 1 .467.334.757.757 0 0 1-.26 1.043z" fill="#BDBDBD"/></svg>